<?xml version="1.0" encoding="utf-8"?>
<!-- Generator: Adobe Illustrator 23.0.5, SVG Export Plug-In . SVG Version: 6.00 Build 0)  -->
<svg version="1.1" xmlns="http://www.w3.org/2000/svg" xmlns:xlink="http://www.w3.org/1999/xlink" x="0px" y="0px"
	 viewBox="0 0 617 756" style="enable-background:new 0 0 617 756;" xml:space="preserve">
<style type="text/css">
	.st0{fill:#F7EB8F;stroke:#000000;stroke-miterlimit:10;}
	.st1{fill:#F8D438;}
	.st2{fill:#F7AC1A;}
	.st3{fill:#FCE2A9;stroke:#000000;stroke-miterlimit:10;}
	.st4{fill:#DABF7A;}
	.st5{fill:#A91E22;stroke:#000000;stroke-miterlimit:10;}
	.st6{fill:#F9D88F;stroke:#000000;stroke-miterlimit:10;}
	.st7{fill:#012439;}
	.st8{stroke:#000000;stroke-miterlimit:10;}
	.st9{fill:#FFFFFF;stroke:#000000;stroke-miterlimit:10;}
	.st10{fill:#FAE2ED;}
	.st11{fill:none;stroke:#000000;stroke-miterlimit:10;}
	.st12{fill:url(#SVGID_1_);stroke:#000000;stroke-miterlimit:10;}
	.st13{fill:url(#SVGID_2_);stroke:#000000;stroke-miterlimit:10;}
	.st14{fill:#FFFFFF;}
	.st15{fill:#131311;}
	.st16{fill:#D29A9A;}
	.st17{fill:#8C181B;}
	.st18{fill:url(#SVGID_3_);}
	.st19{fill:url(#SVGID_4_);}
</style>
<g id="Layer_1">
</g>
<g id="Layer_2">
	<path class="st0" d="M76.5,332.5c0,0-27,31-21,92c0,0,1,6-1,19c0,0-4,20,6,37c0,0,6,14,16,31c0,0,23,38,52,56l332-7
		c0,0,57-35,67-98c0,0,7-21,2-26c0,0,7-24,2-40c0,0-6-27-17-43c0,0-17-36-26-38L76.5,332.5z"/>
	<path class="st1" d="M146.5,550.5c0,0-59-50-54-80s-5-60-5-60s-2.91-53,16.54-60S465.28,339,465.28,339s42.22,45.5,40.22,80.5
		c0,0,0,19-5,40s-36,60-36,60s-11.61,12.51-36.3,22.76C403.5,552.5,146.5,550.5,146.5,550.5z"/>
	<path class="st2" d="M155.79,548.28c0,0-35.29-17.78-19.29-45.78s3-50,3-50s-25-31,16-44s195-10,195-10l76,10c0,0,35-8,18,13
		s-40,43-20,69s-4,46-4,46l-76,26l-190-7L155.79,548.28z"/>
	<path class="st3" d="M468,323.54c0,0,9.63,5.46,22.1-9.54c0,0,14.56-15,15.6-17l7.8-38.5l-34.31-23l-9.36,26l0.62,26.78
		C470.45,288.28,470.33,320.59,468,323.54z"/>
	<path class="st3" d="M79.5,335.5c0,0,23,24,32,12c0,0-9-36-6-55l-19-34c0,0-19,11-21,13s-6,31-6,31l11,26L79.5,335.5z"/>
	<path class="st4" d="M84.5,294.5c0,0-7,9-3,16s11,12,14,13s2-2,2-2s0-5-3-7s-6-6-6-6l4-4L84.5,294.5z"/>
	<path class="st4" d="M479,287c3.22,3.22,6.48,0.24,8.04-1.68c0.57-0.7,0.46-1.73-0.24-2.31l-0.2-0.16c-0.5-0.41-1.2-0.5-1.78-0.21
		L480,285C480,285,478,286,479,287z"/>
	<path class="st4" d="M474.5,271.5c0,0,7,2,12-2c0,0,1.25,2.5,3.75,3.55c0.77,0.32,1.46-0.57,0.94-1.21
		c-0.7-0.87-1.62-1.97-2.6-3.04c-2.09-2.29-1.98-1.56-6.54,0.57C477.5,271.5,474,269,474.5,271.5z"/>
	<g>
		<g>
			<path d="M84.5,320.5c0.14,0.57,0.61,0.9,1.06,1.19c0.46,0.29,0.96,0.52,1.46,0.75c1.02,0.43,2.06,0.83,3.12,1.2
				c2.11,0.77,4.25,1.46,6.36,2.39c-2.3-0.17-4.53-0.7-6.69-1.45c-1.08-0.4-2.14-0.84-3.14-1.45c-0.5-0.3-0.98-0.64-1.41-1.06
				C84.85,321.66,84.4,321.11,84.5,320.5z"/>
		</g>
		<g>
			<path d="M80.69,291.8l-0.49,4.08c-0.17,1.36-0.37,2.71-0.57,4.06c-0.43,2.7-0.9,5.39-1.63,8.06c-0.05-2.77,0.24-5.5,0.65-8.21
				c0.22-1.35,0.47-2.71,0.79-4.04C79.75,294.41,80.15,293.07,80.69,291.8z"/>
		</g>
		<g>
			<path d="M98.5,326.5c0,0-0.79-0.17-2-0.47v-6.53c-1-4-10-11-10-11l5-5c-1.58-1.58-8.11-8.73-10.81-11.7
				c0.5-1.81,0.97-2.48,1.31-0.8c0.5,2.5,13.5,8.5,11.5,14.5l-4,3c0,0,3,2,5,4S100.5,323.5,98.5,326.5z"/>
			<path d="M98.5,326.5l-2.01-0.42l-0.04-0.01l0-0.04l-0.13-6.53l0.01,0.04c-0.36-1.15-1.1-2.18-1.88-3.13
				c-0.79-0.96-1.64-1.86-2.53-2.73c-1.79-1.73-3.69-3.36-5.65-4.88l-0.34-0.26l0.3-0.31l4.96-5.04v0.61l-10.87-11.67l-0.19-0.2
				l0.07-0.27c0.13-0.47,0.26-0.93,0.49-1.42c0.06-0.13,0.13-0.25,0.25-0.4c0.07-0.08,0.13-0.16,0.31-0.25
				c0.06-0.04,0.21-0.07,0.33-0.06c0.13,0,0.21,0.06,0.31,0.11c0.27,0.21,0.31,0.38,0.37,0.52c0.06,0.14,0.09,0.27,0.13,0.4
				c0.03,0.12,0.06,0.27,0.08,0.35c0.03,0.06,0.03,0.12,0.09,0.2c0.08,0.15,0.21,0.32,0.35,0.48c0.28,0.32,0.62,0.63,0.97,0.93
				c1.4,1.19,2.94,2.3,4.4,3.5c1.46,1.2,2.91,2.46,4.11,4c0.59,0.77,1.12,1.61,1.45,2.57c0.32,0.96,0.37,2.05,0.03,3.04l-0.04,0.13
				l-0.1,0.07l-4.03,2.95l-0.02-0.58c1.49,1.04,2.91,2.14,4.26,3.37c0.67,0.59,1.31,1.33,1.77,2.11c0.49,0.77,0.89,1.59,1.27,2.41
				c0.74,1.65,1.35,3.36,1.76,5.12c0.17,0.89,0.35,1.78,0.35,2.68C99.09,324.79,99.02,325.74,98.5,326.5z M98.5,326.5
				c0.48-0.78,0.5-1.72,0.46-2.6c-0.04-0.89-0.24-1.77-0.45-2.63c-0.47-1.72-1.13-3.39-1.92-4.99c-0.83-1.58-1.65-3.17-3.03-4.27
				c-1.33-1.17-2.78-2.23-4.26-3.22l-0.42-0.28l0.4-0.31l3.97-3.05l-0.14,0.2c0.25-0.81,0.21-1.68-0.06-2.5
				c-0.28-0.82-0.77-1.59-1.33-2.3c-1.13-1.43-2.54-2.65-3.99-3.82c-1.45-1.17-2.98-2.25-4.45-3.48c-0.37-0.31-0.73-0.63-1.07-1.01
				c-0.17-0.19-0.34-0.39-0.48-0.65c-0.08-0.12-0.13-0.28-0.18-0.45l-0.08-0.33c-0.03-0.1-0.06-0.2-0.09-0.27
				c-0.02-0.08-0.09-0.13-0.01-0.06c0.04,0.04,0.08,0.04,0.15,0.05c0.06,0.02,0.15-0.03,0.16-0.02c0.07-0.04,0.05-0.03,0.05-0.02
				c-0.03,0.04-0.07,0.12-0.12,0.2c-0.17,0.36-0.31,0.81-0.43,1.24l-0.11-0.46l10.75,11.73l0.3,0.32l-0.3,0.29l-5.04,4.96
				l-0.04-0.57c1.96,1.59,3.83,3.27,5.6,5.07c0.88,0.9,1.73,1.84,2.51,2.84c0.76,1,1.49,2.08,1.84,3.35l0.01,0.02l0,0.02l-0.13,6.53
				l-0.04-0.05L98.5,326.5z"/>
		</g>
	</g>
	<g>
		<path d="M473.71,269.68c1.15,0.09,2.3,0.1,3.43,0.04c1.13-0.06,2.26-0.17,3.35-0.42c1.09-0.24,2.14-0.6,3.12-1.09
			c0.95-0.53,1.81-1.2,2.51-2.02l0.44-0.51l0.36,0.6c0.31,0.51,0.86,1.14,1.38,1.65c0.53,0.54,1.08,1.07,1.66,1.57
			c0.57,0.52,1.16,1,1.74,1.51l1.79,1.48c-1.37-0.73-2.7-1.54-3.96-2.46c-0.62-0.47-1.24-0.95-1.83-1.48
			c-0.58-0.56-1.14-1.04-1.64-1.85l0.81,0.09c-0.78,0.94-1.74,1.73-2.82,2.28c-1.09,0.53-2.24,0.87-3.41,1.06
			c-1.17,0.18-2.35,0.21-3.51,0.13C475.98,270.18,474.82,270.01,473.71,269.68z"/>
	</g>
	<g>
		<path d="M477.5,285.5c1.48-0.48,2.81-1.06,4.12-1.73c0.65-0.34,1.29-0.7,1.92-1.09c0.64-0.38,1.27-0.8,1.96-1.18
			c-0.8,1.36-2.04,2.41-3.42,3.16c-0.71,0.35-1.45,0.64-2.23,0.8C479.08,285.61,478.28,285.68,477.5,285.5z"/>
	</g>
	<path class="st4" d="M490.5,292.5c3,2,3,7,3,7c-1,6-10,6-10,6c-2,1-3-1-2-6s-4-7-4-7s7,0,8,5S493.5,294.5,490.5,292.5"/>
	<g>
		<path d="M519.5,365.5c-1.02,1.83-2.36,3.48-3.88,4.95c-1.51,1.48-3.22,2.75-5.05,3.82c-0.9,0.56-1.88,0.98-2.84,1.43
			c-1,0.36-1.97,0.79-3.01,1.01c-2.03,0.61-4.15,0.77-6.24,0.8c2.05-0.41,4.08-0.83,6.01-1.54c1.94-0.66,3.81-1.52,5.57-2.56
			c1.78-1.01,3.45-2.2,5.03-3.53C516.67,368.54,518.16,367.1,519.5,365.5z"/>
	</g>
	<g>
		<path d="M533.5,417.5c-2.16,0.49-4.35,0.81-6.54,1.07c-2.19,0.27-4.4,0.42-6.62,0.48c-2.21,0.04-4.44,0.01-6.65-0.28
			c-1.1-0.15-2.21-0.34-3.28-0.65c-1.05-0.35-2.16-0.78-2.9-1.62c0.89,0.66,1.95,0.96,3.02,1.14c1.06,0.21,2.15,0.31,3.24,0.36
			c2.18,0.11,4.37,0.11,6.56,0.05c2.19-0.04,4.38-0.16,6.58-0.25l3.3-0.17L533.5,417.5z"/>
	</g>
	<g>
		<path d="M531.5,423.5c-1.04,0.17-2.09,0.31-3.14,0.46l-3.15,0.33c-2.1,0.21-4.22,0.3-6.33,0.35c-2.12,0.02-4.24-0.01-6.36-0.25
			c-1.06-0.13-2.11-0.28-3.16-0.52c-1.01-0.29-2.12-0.57-2.87-1.37c0.87,0.6,1.93,0.76,2.96,0.89c1.03,0.14,2.07,0.2,3.12,0.24
			c2.09,0.05,4.19,0.06,6.29,0.02l6.31-0.11C527.27,423.5,529.38,423.43,531.5,423.5z"/>
	</g>
	<g>
		<path d="M503.5,519.5c-1.39-0.17-2.76-0.53-4.08-1.02c-1.33-0.48-2.59-1.13-3.79-1.91c-0.6-0.39-1.15-0.86-1.69-1.32
			c-0.5-0.53-1.01-1.03-1.39-1.66c-0.81-1.2-1.22-2.69-1.05-4.09c0.47,2.8,2.44,4.78,4.69,6.24c1.12,0.76,2.31,1.42,3.54,2.02
			C500.96,518.36,502.21,518.95,503.5,519.5z"/>
	</g>
	<g>
		<path d="M500.5,329.5c-0.47,1.89-1.47,3.64-2.69,5.17c-1.22,1.55-2.72,2.86-4.34,3.98c-1.65,1.08-3.42,1.96-5.27,2.59
			c-0.91,0.35-1.88,0.54-2.81,0.8c-0.96,0.17-1.92,0.33-2.88,0.45c0.91-0.34,1.84-0.6,2.74-0.92c0.89-0.37,1.8-0.66,2.67-1.06
			c0.86-0.41,1.75-0.76,2.56-1.25c0.85-0.42,1.64-0.94,2.44-1.45c1.56-1.06,3.02-2.28,4.31-3.66
			C498.49,332.77,499.67,331.25,500.5,329.5z"/>
	</g>
	<g>
		<path d="M503.5,470.5c1.37,1.02,2.81,1.89,4.25,2.75c1.45,0.84,2.93,1.63,4.43,2.36c1.51,0.72,3.04,1.42,4.6,2.04
			c1.56,0.64,3.13,1.23,4.72,1.85c-0.84-0.12-1.68-0.28-2.52-0.45c-0.82-0.21-1.66-0.39-2.47-0.67c-1.64-0.48-3.22-1.16-4.77-1.88
			c-1.53-0.76-3.02-1.62-4.42-2.61C505.93,472.91,504.61,471.8,503.5,470.5z"/>
	</g>
	<polygon class="st5" points="386.5,541.5 421.5,533.5 434.5,550.5 452.5,550.5 457.5,557.5 536.5,596.5 536.5,655.5 387.84,655.5 
		383.5,631.5 411.5,586.5 	"/>
	<path class="st5" d="M48.5,654.5l-2-21l36-25c0,0,22-14,22-17c0,0,6-21,10-21l25-6c0,0,5-12,7-14c0,0,10-5,21,0l18,13l-11,42l35,44
		l-6,6l-154,1"/>
	<path class="st6" d="M419.5,608.5l-32,27l6,20h-189c0,0,0-10-13-20c0,0-24-19-26-28l-4-44l-2-8c0,0,44-20,47-29
		c0,0,5.73-16.36,5.34-32.8c-0.04-1.74-0.15-3.48-0.34-5.2c0,0-4-44-8-48l160-2c0,0-3.78,41.04-3.8,64.39
		c-0.01,8.43,0.47,14.55,1.8,15.61c0,0,40,30,55,26l4,10C420.5,554.5,429.5,600.5,419.5,608.5z"/>
	<g>
		<path d="M169.5,578.5l-5.11-5.91l-0.2-0.23l0.3,0c7.02-0.02,14.05,0.09,21.07,0.22c7.02,0.11,14.04,0.36,21.06,0.62
			c7.02,0.26,14.04,0.62,21.05,1.14c3.5,0.26,7.01,0.56,10.51,0.94c1.75,0.19,3.5,0.41,5.24,0.7c1.74,0.31,3.48,0.58,5.2,1.19
			l-0.02-0.01c2.08,0.65,4.09,1.45,6.07,2.32c1.98,0.88,3.91,1.85,5.78,2.94c1.87,1.08,3.66,2.31,5.37,3.63
			c1.71,1.33,3.26,2.84,4.69,4.45c-1.5-1.55-3.1-2.98-4.83-4.26c-1.74-1.26-3.55-2.42-5.44-3.44c-3.77-2.04-7.74-3.75-11.83-4.97
			l-0.01,0l-0.02-0.01c-1.61-0.54-3.36-0.79-5.08-1.06c-1.73-0.24-3.47-0.45-5.21-0.63c-3.48-0.36-6.98-0.64-10.48-0.87
			c-7-0.46-14.01-0.79-21.02-1.12c-7.01-0.33-14.03-0.54-21.04-0.81l-21.05-0.69l0.11-0.23L169.5,578.5z"/>
	</g>
	<path class="st4" d="M363,438.5c0,0-3.76,41.04-3.78,64.39c-42.44,28.9-58.83,33.61-58.83,33.61c-19.88-3-88.11-42.8-88.11-42.8
		c-0.04-1.74-0.15-3.48-0.34-5.2c0,0-3.97-44-7.95-48L363,438.5z"/>
	<path class="st3" d="M104,294c0,0-9,127,107,163c0,0,18.5,8.5,23.5,11.5c0,0,42,15,68,8c0,0,21-4,34-10c0,0,18-10,22-12
		c0,0,16-8,33-16c0,0,38-17,54-51c0,0,13-24,17-39c0,0,10-40,7-46l3-129l-175-63l-140,42l-63,89c0,0,1,32,0,33S104,294,104,294z"/>
	<g>
		<path d="M317.5,223.5c5.59-2.29,11.28-4.35,17.01-6.24c5.73-1.9,11.52-3.64,17.35-5.22c5.84-1.55,11.71-3.02,17.66-4.14
			c5.93-1.16,11.94-2.06,17.98-2.39c-5.94,1.11-11.79,2.51-17.64,3.92l-4.38,1.09l-4.37,1.14c-2.91,0.76-5.82,1.51-8.72,2.32
			c-5.82,1.54-11.61,3.19-17.42,4.78C329.16,220.38,323.34,221.94,317.5,223.5z"/>
	</g>
	<g>
		<path d="M136.5,224.5c3.51-1.89,7.31-3.17,11.14-4.29c3.85-1.06,7.79-1.83,11.77-2.28c3.98-0.46,7.99-0.62,12-0.49
			c4.01,0.13,8.01,0.51,11.96,1.22c3.95,0.71,7.87,1.6,11.68,2.85c0.96,0.27,1.91,0.62,2.85,0.95c0.94,0.34,1.9,0.65,2.83,1.02
			c1.85,0.78,3.73,1.48,5.52,2.36c7.28,3.33,14.15,7.51,20.48,12.34l-0.51,0.04c-0.09,0.11-0.03,0.04-0.03,0.03l0.02-0.11
			c0.01-0.09,0.02-0.18,0.02-0.28c0.01-0.19-0.01-0.4-0.03-0.61c-0.04-0.42-0.13-0.84-0.22-1.26c-0.19-0.84-0.43-1.69-0.7-2.52
			c-0.26-0.84-0.56-1.66-0.86-2.49c-0.29-0.83-0.61-1.65-0.92-2.47c0.39,0.79,0.78,1.58,1.15,2.38c0.38,0.8,0.72,1.61,1.05,2.43
			c0.33,0.82,0.63,1.66,0.89,2.51c0.13,0.43,0.24,0.86,0.32,1.32c0.04,0.23,0.07,0.46,0.08,0.7c0.01,0.12,0,0.25,0,0.38
			c-0.04,0.17,0.03,0.22-0.2,0.55l-0.18,0.26l-0.33-0.22c-6.59-4.38-13.51-8.24-20.74-11.37c-7.22-3.15-14.78-5.44-22.5-6.86
			c-7.73-1.38-15.63-1.81-23.48-1.21c-3.92,0.31-7.83,0.87-11.69,1.69C143.99,221.9,140.17,222.98,136.5,224.5z"/>
	</g>
	<path class="st4" d="M307.12,464.5c-16.97,1.24-40.09,1.45-59.12-4.5c0,0-6-2-4-2c0,0,48,12,84-1
		C328,457,317.35,463.75,307.12,464.5z"/>
	<path class="st4" d="M111.5,256.5L135,281c0,0-20-43,22-87c31.25-32.74-15.5-18.5-20.5-11.5s-19,36-20,41S111.5,256.5,111.5,256.5z
		"/>
	<path class="st4" d="M170.5,214.5l5,31c0,0,5.5-69.5,53-88c40.46-15.76-22-18-22-16S170.5,214.5,170.5,214.5z"/>
	<path class="st4" d="M239.5,163.5c0,0,3,17,8,22s56,39,43,78l-7,18c0,0,29-8,24-58s-66-60-66-60"/>
	<path class="st4" d="M331.5,196.5l18,47c0,0-4-55,16-71s-36-11-36-11L331.5,196.5z"/>
	<path class="st4" d="M391.5,209.5c0,0,53,48,46,78c0,0,13-15,5-37s-49-45-49-45L391.5,209.5z"/>
	<path class="st7" d="M115,171.5c0,0-45,60-84,57c0,0,19,15,50,8c0,0-27,19-31,23c0,0,5,5,17,0c0,0-31,31-31,39c0,0,14-1,22-8
		c0,0-8,35-20,47c0,0,4,2,26-15c0,0,5,14-18,28c0,0-6,4-9,4c0,0,2,7,28-6l14-13c0,0-21-21-14-54c0,0,3-13,12-12c0,0,4-1,6,0
		c0,0,9,11,13,11c0,0,6,11,6,17c0,0,6,8,6-4l-7-15c0,0,17,12,19,12c0,0-10-13-12-28c0,0,16,18,26,18c0,0-17-24-6-51c0,0,11-27,23-39
		c0,0,5,37,25,55c0,0,2-59,25-76s20-15,20-15s8,24,45,47c0,0,51,31,20,79c0,0,33-6,24-81c0,0,35,19,40,47c0,0-6-56,5-79
		c0,0,15,32,32,41c0,0,70,37,50,82c0,0,20-9,22-46c0,0,8,36-2,51c0,0,4,7,10-1c0,0,6-7,6-17c0,0,0-21,11-27c0,0,21-4,20,17
		c0,0,4,10.5,0,24.5c-2.53,8.86-9,16-14,23c0,0,16,5,21-7c0,0,9-4,8-15.5c0,0-2-4,20,2v-8c0,0-11-3-18-13c0,0,12,6,18,4v-13
		c0,0-18-16-19-20s0-12,0-12s11,7,11,12c0,0,7,6,8,5v-11c0,0-3-5-5-13c0,0-17-12-24-23c0,0,22,5,28,4v-13c0,0-53-25-65-58
		c0,0-5-18-62-20c0,0,6-12,34-5c0,0,1-7-13-11c0,0-11-2-17,0c0,0-7,2.5-12.91,2.68c-2.31,0.07-4.57-0.62-6.84-0.19
		c-1.47,0.28-3.28,0.51-5.25,0.51c0,0-2,1-2-3c0,0-3-14-9-15c0,0-21-10-32-15c0,0-7-4-6,0c0,0,12,10,14,18c0,0,4,11-8,7
		c0,0-49-19-106-10c0,0-55,2-119,66c0,0-17,14-44,6C78,156.5,90,170.5,115,171.5z"/>
	<path class="st7" d="M160.5,259.5c-0.86,0.51-15,8-15,11c0,0-4,6,0,5c0,0,15-8,20-9c0,0,12-4,24-3s29,9,29,9s4.81,0,4.99-2.83
		c0-0.06,0.01-0.11,0.01-0.17c0-3,1-3-5-6s-22-11-36-10C182.5,253.5,165.5,256.5,160.5,259.5z"/>
	<path class="st4" d="M266,267c0,0,2,26-9,43c0,0-2.5,5.5,5.5,8.5c0,0,5,1,7,3l1-2c0,0-11-4-9-7s14-37,10-42S266,267,266,267z"/>
	<path class="st7" d="M328.5,253.5c0,0-22,11-11,14c0,0,7-2,18-7c0,0,38-13,63,1c0,0,6,3,8-2c0,0-2-7-25-12
		C381.5,247.5,353.5,241.5,328.5,253.5z"/>
	<path d="M263.5,264.5c0,0,3,24-8,42c0,0-5,8,3,12c0,0,9,2,10,6c0,0,6-1,2-5c0,0-12-2-12-7s0-1,0-1s16-36,10-45
		C268.5,266.5,265.5,261.5,263.5,264.5z"/>
	<g>
		<path d="M372.5,326.5c3.02-0.57,6.04-1.12,9.04-1.74c3.01-0.59,6.02-1.2,9.02-1.84c6-1.29,11.99-2.61,17.91-4.17
			c5.94-1.49,11.83-3.19,17.61-5.21c2.89-1,5.75-2.1,8.52-3.4c2.78-1.27,5.48-2.74,7.9-4.64c-2.28,2.07-4.96,3.65-7.68,5.08
			c-2.75,1.4-5.59,2.59-8.47,3.69c-5.76,2.18-11.68,3.88-17.63,5.45c-5.97,1.49-11.97,2.82-18.01,3.95
			C384.67,324.79,378.6,325.78,372.5,326.5z"/>
	</g>
	<path class="st8" d="M394.5,315.5c0,0,5,5,4,11c0,0,3-4,2-7S394.5,315.5,394.5,315.5"/>
	<path class="st8" d="M412.93,312.83c0,0,3.33,2.92,3.42,7.05c0,0,1.24-2.96,0.36-4.89C415.82,313.05,412.93,312.83,412.93,312.83"
		/>
	<path class="st9" d="M443.84,330.93c-0.61,3.64-1.34,6.57-1.34,6.57c-11,53-34,68-34,68c-18,24-73,36-73,36c-28,16-86,4-86,4
		c-25.5-3.96-43.08-10.62-54.76-16.85c-2.6-1.38-4.9-2.73-6.93-4.04c-9.67-6.18-13.31-11.11-13.31-11.11c-14-12-29-46-29-46
		c-3.82-7.84-6.3-14.06-7.83-19c-6.11-19.64,2.83-19,2.83-19c7.85,2.18,19.68,5.12,30.54,7.74c14.05,3.4,26.46,6.26,26.46,6.26
		c30,7,91,4,91,4c59,1,97-9,97-9c3.89-1.94,16.97-6.95,29.4-11.59c13.17-4.91,25.6-9.41,25.6-9.41
		C445.71,314.9,444.98,324.15,443.84,330.93z"/>
	<path class="st10" d="M174.5,344c-8.12-3-18.26,6-18.26,6c-2.03-4-16.23,0-16.23,0H139c-6.93-18.8,0.35-19.26,1-20
		c7.96,2.18,20.98,5.38,32,8L174.5,344z"/>
	<path d="M159.5,377.5c0,0-5-11-5-19c0,0,7,17,11,18c0,0-7,9,3,20C168.5,396.5,159.5,391.5,159.5,377.5"/>
	<path d="M419.53,373.63c0,0,3.88-8.54,3.47-14.53c0,0-5.35,13.15-8.86,14.15c0,0,6.7,6.3-1.63,15.15
		C412.5,388.4,420.26,384.1,419.53,373.63"/>
	<g>
		<path d="M187.46,394.52c-0.76-1.39-1.37-2.85-1.89-4.34c-0.5-1.5-0.93-3.03-1.14-4.61c-0.21-1.58-0.25-3.19,0-4.78
			c0.28-1.59,0.87-3.13,1.77-4.5l0.04,0.47c-1.44-1.45-2.74-2.99-3.98-4.6c-1.23-1.61-2.38-3.29-3.36-5.07
			c-0.99-1.78-1.76-3.67-2.42-5.6c-0.59-1.95-0.96-3.97-1.03-5.98l0.1-0.01c0.39,1.98,0.9,3.9,1.64,5.74
			c0.73,1.85,1.62,3.62,2.6,5.35c1.01,1.71,2.05,3.4,3.21,5.02c1.16,1.62,2.41,3.19,3.76,4.63l0.21,0.22l-0.17,0.25
			c-0.87,1.25-1.46,2.67-1.78,4.18c-0.28,1.52-0.28,3.08-0.14,4.62c0.14,1.55,0.51,3.08,0.95,4.58c0.46,1.5,1.01,2.97,1.71,4.38
			L187.46,394.52z"/>
	</g>
	<g>
		<path d="M400.46,389.48c0.7-1.4,1.25-2.88,1.71-4.38c0.44-1.5,0.81-3.03,0.95-4.58c0.14-1.55,0.14-3.11-0.14-4.62
			c-0.31-1.51-0.91-2.93-1.78-4.18l-0.17-0.25l0.21-0.22c1.35-1.44,2.6-3.02,3.76-4.63c1.16-1.62,2.21-3.31,3.21-5.02
			c0.97-1.73,1.87-3.5,2.6-5.35c0.74-1.85,1.26-3.77,1.64-5.74l0.1,0.01c-0.07,2.02-0.44,4.04-1.03,5.98
			c-0.66,1.92-1.43,3.82-2.42,5.6c-0.98,1.78-2.13,3.46-3.36,5.07c-1.24,1.61-2.55,3.14-3.98,4.6l0.04-0.47
			c0.9,1.37,1.49,2.91,1.77,4.5c0.25,1.6,0.21,3.21,0,4.78c-0.21,1.58-0.63,3.12-1.14,4.61c-0.52,1.49-1.13,2.95-1.89,4.34
			L400.46,389.48z"/>
	</g>
	<path class="st11" d="M194.74,428.65c-1.97-1.05-3.78-2.08-5.42-3.09l5.32,2.82C194.67,428.47,194.7,428.56,194.74,428.65z"/>
	<path class="st8" d="M193.12,418.91l0.38,8.59c-0.52-0.32-5.2-2.57-5.69-2.89l5.68-7.1C193.46,417.59,193.26,418.04,193.12,418.91z
		"/>
	<linearGradient id="SVGID_1_" gradientUnits="userSpaceOnUse" x1="192.6631" y1="425.4171" x2="200.2873" y2="423.5254">
		<stop  offset="0.2688" style="stop-color:#000000"/>
		<stop  offset="0.6448" style="stop-color:#FFFFFF"/>
	</linearGradient>
	<path class="st12" d="M201.08,431.79l-6.44-3.41c-1.78-4.75-1.77-7.84-1.52-9.47l1.38-2.41
		C194.5,416.5,197.67,428.08,201.08,431.79z"/>
	<path d="M389.77,411.91l-1.27,9.59c0.52-0.32,6.09-3.57,6.58-3.89l-5.68-7.1C389.43,410.59,389.63,411.04,389.77,411.91z"/>
	<linearGradient id="SVGID_2_" gradientUnits="userSpaceOnUse" x1="392.0921" y1="419.7135" x2="384.6017" y2="416.9619">
		<stop  offset="0.6467" style="stop-color:#000000"/>
		<stop  offset="1" style="stop-color:#FFFFFF"/>
	</linearGradient>
	<path class="st13" d="M381.81,424.79l6.44-3.41c1.78-4.75,1.77-7.84,1.52-9.47l-1.38-2.41
		C388.39,409.5,385.22,421.08,381.81,424.79z"/>
	<path class="st10" d="M443.17,331.93l-7.42,1.57c-6.07,0-9.1-5-9.1-5c-6.76,4.17-11.4,0.68-12.74-0.59
		c13.32-4.91,25.89-9.41,25.89-9.41C446,315,444.32,325.15,443.17,331.93z"/>
	
		<ellipse transform="matrix(0.9848 -0.1736 0.1736 0.9848 -42.4271 34.639)" class="st14" cx="176.86" cy="259.93" rx="9.39" ry="2.23"/>
	<ellipse transform="matrix(0.9785 -0.2064 0.2064 0.9785 -44.6069 77.3558)" class="st14" cx="348.5" cy="252.5" rx="8" ry="2"/>
	<g>
		<path d="M150.91,378.74c1.48,0.12,2.97,0.07,4.45-0.01c1.48-0.09,2.96-0.26,4.42-0.47c1.47-0.22,2.93-0.49,4.37-0.8
			c1.45-0.31,2.89-0.68,4.32-1.07l0.01,0l0.01,0c21.22-1.6,42.47-2.82,63.73-3.81c10.63-0.46,21.27-0.8,31.9-1.16
			c10.64-0.34,21.27-0.69,31.91-0.94c21.28-0.47,42.56-0.92,63.85-0.85c10.66-0.07,21.28,0.83,31.9,1.45
			c5.31,0.34,10.62,0.77,15.92,1.25c2.65,0.24,5.3,0.5,7.94,0.82c2.64,0.33,5.3,0.61,7.88,1.32l-0.02,0l7.35-0.07l-7.34,0.17
			l-0.01,0l-0.01,0c-2.56-0.67-5.23-0.91-7.87-1.21c-2.64-0.28-5.29-0.5-7.95-0.71c-5.3-0.42-10.61-0.72-15.92-1.06
			c-10.63-0.57-21.23-1.41-31.87-1.29c-21.27,0.03-42.55,0.58-63.82,1.15c-21.27,0.56-42.55,1.06-63.81,1.84
			c-21.26,0.84-42.5,2.13-63.75,3.34l0.02,0c-1.44,0.37-2.88,0.72-4.34,1.01c-1.46,0.29-2.92,0.54-4.4,0.74
			c-1.47,0.19-2.95,0.34-4.44,0.41C153.87,378.85,152.39,378.88,150.91,378.74z"/>
	</g>
	<g>
		<path d="M314.5,591.5c2.07-2.88,4.37-5.6,6.82-8.18l0.05-0.05l0.08-0.02c5.78-1.15,11.56-2.3,17.37-3.29
			c5.81-1,11.62-2.03,17.46-2.84c5.84-0.83,11.67-1.68,17.55-2.21c1.47-0.16,2.94-0.27,4.41-0.39c1.47-0.13,2.94-0.24,4.42-0.27
			l2.21-0.09l2.22,0.02c1.48-0.05,2.95,0.16,4.41,0.33c-1.48-0.08-2.94-0.19-4.41-0.09l-2.2,0.08l-2.2,0.18
			c-1.47,0.11-2.93,0.25-4.39,0.42c-1.46,0.16-2.93,0.3-4.38,0.5c-5.84,0.74-11.67,1.57-17.49,2.46
			c-5.82,0.92-11.64,1.81-17.45,2.78l-17.43,2.91l0.13-0.07C319.13,586.13,316.75,588.76,314.5,591.5z"/>
	</g>
	<path class="st2" d="M139.5,563l3-6c0,0,143,50,147,49l6-4l12,5l16-5c0,0,102.65-44.23,109.5-53l3,3c0,0-111.5,58-125.5,61l-2,1
		c0,0,8,6,6,8l-2,2c0,0-5-8-9-7c0,0-5,3-8,0c0,0-7,4-9,9h-6c0,0,0-5-1-6c0,0,12-7,11-8c0,0-4-2-15-5C275.5,607,143.5,562,139.5,563z
		"/>
	<g>
		<path class="st15" d="M296.5,616.5c-0.1-1.06-0.07-2.04-0.05-3.01l0.12-2.82c0.03-0.92,0.03-1.8-0.07-2.66
			c-0.1-0.86-0.31-1.67-1-2.51c0.25,0.04,0.52,0.11,0.79,0.2c0.26,0.11,0.47,0.29,0.71,0.46c0.41,0.39,0.78,0.86,1,1.38
			c0.46,1.03,0.61,2.14,0.57,3.19c-0.05,1.05-0.25,2.07-0.58,3.05C297.64,614.75,297.19,615.68,296.5,616.5z"/>
	</g>
	<g>
		<path d="M300.5,616.5c0.05-1.74,0.26-3.41,0.35-5.07c0.06-0.83,0.08-1.65,0.05-2.47c-0.04-0.82-0.12-1.63-0.4-2.46
			c0.65,0.61,0.99,1.5,1.18,2.36c0.2,0.87,0.22,1.76,0.17,2.63c-0.06,0.87-0.19,1.74-0.42,2.57
			C301.21,614.91,300.92,615.73,300.5,616.5z"/>
	</g>
	<g>
		<path d="M304.79,615.54c0.05-1.26,0.23-2.4,0.34-3.55c0.06-0.57,0.1-1.14,0.13-1.72c0.01-0.58,0-1.15-0.03-1.79
			c0.42,0.48,0.67,1.09,0.81,1.71c0.13,0.62,0.14,1.26,0.09,1.89c-0.07,0.62-0.21,1.24-0.43,1.82
			C305.47,614.49,305.2,615.05,304.79,615.54z"/>
	</g>
	<path class="st16" d="M188.5,608.5c0,0,8-1,14,3c0,0,6,8,10,8c0,0,10,2,13,4c0,0,5,5,9,8c0,0,5,5,10,4c0,0,5,2,5,3c0,0,4-3,7-1
		c0,0,1,3,5,4c0,0,6,1,8,4c0,0,8,8,13,9h7c0,0,5-5,9-5c0,0,5,0,8-4c0,0,7-4,16-3c0,0,2,0,8-4c0,0,16-7,18-7s6-4,7-5c0,0,8-8,31-13
		c0,0-9,13-8,17c0,0-1,7-9,9c0,0-10,5-10,12c0,0-18,0-23,3h-99c0,0-2-5-16-10c0,0-11-6-12-11c0,0-5-2-8-8c0,0-3-7-6-9
		C195.5,616.5,188.5,611.5,188.5,608.5z"/>
	<g>
		<path d="M55,423c1.12,0.77,2.28,1.41,3.47,1.98c1.19,0.56,2.42,1.03,3.68,1.35c1.25,0.35,2.55,0.58,3.85,0.66
			c1.31,0.12,2.63,0.06,3.99,0c-1.28,0.44-2.63,0.77-4.01,0.78c-1.38,0.07-2.77-0.13-4.1-0.48c-1.33-0.37-2.62-0.91-3.79-1.64
			C56.93,424.95,55.86,424.06,55,423z"/>
	</g>
	<g>
		<path d="M55.5,432.5c0.9-0.2,1.81-0.24,2.72-0.22c0.91,0.02,1.82,0.14,2.72,0.32c0.89,0.2,1.78,0.49,2.61,0.95
			c0.81,0.44,1.62,1.07,1.95,1.95c-0.68-0.62-1.47-0.95-2.28-1.24c-0.81-0.27-1.64-0.51-2.5-0.68
			C59.02,433.19,57.28,432.93,55.5,432.5z"/>
	</g>
	<g>
		<path d="M105.5,479.5c3.58-1.06,7.28-1.61,11.02-1.78c1.87-0.07,3.75-0.05,5.61,0.21c1.85,0.24,3.73,0.67,5.38,1.57
			c-1.79-0.53-3.62-0.68-5.45-0.79c-1.83-0.09-3.66-0.07-5.5,0.01c-1.84,0.06-3.67,0.19-5.51,0.33L105.5,479.5z"/>
	</g>
	<g>
		<path d="M65.5,493.5c1.19,0.61,2.4,1.14,3.61,1.65c1.21,0.49,2.44,0.92,3.69,1.24c1.25,0.31,2.52,0.49,3.81,0.55
			c1.29,0.02,2.57-0.14,3.89-0.44c-1.16,0.66-2.49,1.11-3.86,1.22c-1.37,0.1-2.75-0.05-4.08-0.37
			C69.92,496.64,67.45,495.35,65.5,493.5z"/>
	</g>
	<g>
		<path d="M80.5,513.5c2.74,0.06,5.47-0.18,8.16-0.59c2.68-0.44,5.35-0.99,7.94-1.79c2.59-0.8,5.16-1.71,7.63-2.85
			c2.5-1.08,4.87-2.43,7.28-3.76c-1.1,0.82-2.2,1.65-3.36,2.4c-1.18,0.7-2.35,1.45-3.59,2.06c-2.43,1.32-5.04,2.28-7.67,3.12
			c-2.65,0.8-5.38,1.33-8.13,1.6c-1.38,0.14-2.76,0.19-4.14,0.19C83.23,513.81,81.85,513.76,80.5,513.5z"/>
	</g>
	<g>
		<path d="M85.5,521.5c1.19,0.3,2.38,0.1,3.55-0.08c1.17-0.21,2.33-0.51,3.48-0.83c1.15-0.33,2.3-0.69,3.46-1.05
			c1.16-0.36,2.31-0.75,3.51-1.05c-1.03,0.68-2.11,1.27-3.23,1.77c-1.12,0.52-2.28,0.93-3.46,1.28c-1.2,0.31-2.42,0.58-3.67,0.64
			c-0.63,0.03-1.25,0.02-1.88-0.07C86.65,522.02,86,521.88,85.5,521.5z"/>
	</g>
	<g>
		<path d="M64.5,359.5c1.55,1.63,3.29,3.06,5.13,4.3c1.85,1.22,3.79,2.32,5.85,3.12c2.05,0.82,4.17,1.49,6.36,1.88
			c2.18,0.46,4.41,0.57,6.67,0.7c-1.12,0.11-2.25,0.24-3.38,0.26c-1.13-0.04-2.28-0.02-3.4-0.2c-2.28-0.21-4.49-0.88-6.62-1.71
			c-2.12-0.86-4.12-2.02-5.92-3.43c-0.9-0.7-1.75-1.47-2.55-2.27C65.86,361.31,65.1,360.46,64.5,359.5z"/>
	</g>
	<g>
		<path d="M80.5,402.5c1.02,1.53,2.1,3.02,3.29,4.41c1.15,1.42,2.39,2.77,3.68,4.06c2.59,2.57,5.41,4.89,8.47,6.85
			c0.78,0.47,1.51,1.02,2.32,1.42l2.41,1.26c0.81,0.4,1.67,0.71,2.5,1.07l1.26,0.52l1.3,0.41c0.87,0.26,1.73,0.57,2.61,0.79
			l2.68,0.53c0.45,0.08,0.89,0.22,1.35,0.26l1.37,0.13c0.91,0.08,1.83,0.18,2.74,0.29c-3.66,0.05-7.42-0.16-10.97-1.27l-1.35-0.35
			l-1.3-0.49c-0.86-0.35-1.75-0.64-2.59-1.03l-2.49-1.26c-0.84-0.4-1.59-0.96-2.39-1.43c-3.12-2.02-5.99-4.42-8.49-7.16
			C84.42,408.76,82.19,405.78,80.5,402.5z"/>
	</g>
	<g>
		<path d="M468.5,441.5l4.35,0.96c1.44,0.33,2.89,0.65,4.34,0.94c2.9,0.59,5.79,1.19,8.71,1.67c2.91,0.51,5.83,0.94,8.76,1.24
			c0.73,0.09,1.47,0.16,2.2,0.19c0.73,0.03,1.47,0.12,2.21,0.1c0.74,0.01,1.48,0.04,2.21,0.03c0.73-0.05,1.47-0.09,2.22-0.12
			c-2.91,0.67-5.93,0.69-8.9,0.57c-2.98-0.11-5.94-0.52-8.88-1.02c-2.93-0.51-5.84-1.14-8.71-1.91
			C474.14,443.38,471.29,442.54,468.5,441.5z"/>
	</g>
	<path class="st17" d="M96.5,602.5c0,0,46,44,78,52c0,0-68.27-60.51-68.09-68.26l-1,6l-11.09,8.3L96.5,602.5z"/>
	<linearGradient id="SVGID_3_" gradientUnits="userSpaceOnUse" x1="159.844" y1="273.2024" x2="166.8758" y2="301.6355">
		<stop  offset="0" style="stop-color:#FFFFFF"/>
		<stop  offset="0.3803" style="stop-color:#FEF2D9"/>
		<stop  offset="0.7825" style="stop-color:#FCE6B6"/>
		<stop  offset="1" style="stop-color:#FCE2A9"/>
	</linearGradient>
	<path class="st18" d="M180.09,292.38c0.92,3.97-4.89,8.71-12.98,10.6c-8.09,1.89-15.41,0.2-16.33-3.76s4.89-8.71,12.98-10.6
		C171.85,286.73,179.16,288.41,180.09,292.38z"/>
	<linearGradient id="SVGID_4_" gradientUnits="userSpaceOnUse" x1="387.7477" y1="264.6371" x2="385.9133" y2="290.3186">
		<stop  offset="0" style="stop-color:#FFFFFF"/>
		<stop  offset="0.3803" style="stop-color:#FEF2D9"/>
		<stop  offset="0.7825" style="stop-color:#FCE6B6"/>
		<stop  offset="1" style="stop-color:#FCE2A9"/>
	</linearGradient>
	<path class="st19" d="M405.43,289.14c-0.81,4.48-10.06,6.55-20.66,4.64c-10.6-1.92-18.53-7.1-17.72-11.58
		c0.81-4.48,10.06-6.55,20.66-4.64C398.31,279.48,406.24,284.67,405.43,289.14z"/>
	<g>
		<g>
			<path class="st7" d="M188.74,163.07c5.05-2.73,9.77-6.06,14.06-9.86c1.45-1.28-0.68-3.4-2.12-2.12
				c-4.11,3.64-8.63,6.78-13.46,9.39C185.53,161.4,187.04,163.99,188.74,163.07L188.74,163.07z"/>
		</g>
	</g>
	<g>
		<g>
			<path class="st7" d="M190.64,146.96c9.09-1.49,18.02-3.86,26.65-7.07c1.79-0.67,1.02-3.57-0.8-2.89
				c-8.64,3.22-17.56,5.58-26.65,7.07C187.95,144.37,188.75,147.27,190.64,146.96L190.64,146.96z"/>
		</g>
	</g>
	<g>
		<g>
			<path class="st7" d="M177.44,155.08c8.56-0.46,17.12-0.92,25.68-1.39c1.92-0.1,1.93-3.1,0-3c-8.56,0.46-17.12,0.92-25.68,1.39
				C175.52,152.19,175.51,155.19,177.44,155.08L177.44,155.08z"/>
		</g>
	</g>
	<g>
		<g>
			<path class="st7" d="M208.52,154c4.86-2.64,9.38-5.88,13.47-9.59c1.43-1.3-0.69-3.42-2.12-2.12c-3.91,3.55-8.23,6.59-12.87,9.12
				C205.31,152.33,206.82,154.93,208.52,154L208.52,154z"/>
		</g>
	</g>
	<g>
		<path d="M477.5,292.5c1.31,0.48,2.5,1.34,3.37,2.49c0.43,0.58,0.72,1.26,0.92,1.97c0.14,0.71,0.23,1.46,0.11,2.19
			c-0.18,1.41-0.41,2.74-0.34,4.08c0.04,0.64,0.15,1.33,0.45,1.73c0.15,0.2,0.3,0.3,0.51,0.31c0.22,0.01,0.49-0.08,0.75-0.2
			l0.11-0.05l0.11,0c1-0.03,2.03-0.17,3.03-0.36c1-0.2,1.99-0.49,2.89-0.92c0.91-0.42,1.76-0.96,2.42-1.69
			c0.65-0.73,1.09-1.62,1.32-2.59l0,0.06c0.01-1.26-0.2-2.56-0.57-3.79c-0.2-0.61-0.46-1.2-0.79-1.76
			c-0.35-0.54-0.78-1.04-1.29-1.45c0.56,0.34,1.07,0.79,1.48,1.32c0.4,0.54,0.73,1.13,1,1.75c0.27,0.62,0.45,1.27,0.59,1.92
			c0.14,0.66,0.24,1.32,0.27,2.01l0,0.02l-0.01,0.03c-0.19,1.1-0.62,2.17-1.35,3.05c-0.74,0.86-1.68,1.49-2.66,1.99
			c-0.99,0.49-2.04,0.8-3.1,1.03c-1.06,0.23-2.12,0.36-3.23,0.37l0.22-0.05c-0.37,0.16-0.77,0.32-1.26,0.29
			c-0.5-0.03-0.97-0.35-1.22-0.72c-0.51-0.75-0.53-1.53-0.58-2.26c-0.02-0.73,0.05-1.45,0.15-2.15c0.1-0.69,0.29-1.42,0.39-2.06
			c0.15-0.65,0.1-1.31,0.02-1.96c-0.14-0.64-0.38-1.27-0.71-1.85C479.8,294.09,478.72,293.16,477.5,292.5z"/>
	</g>
	<g>
		<path d="M494,268c1.85,1.86,2.94,4.36,3.67,6.87c0.74,2.53,1.02,5.17,1.04,7.79c0.04,1.31-0.08,2.62-0.16,3.92
			c-0.12,1.3-0.33,2.59-0.53,3.88c-0.29,1.27-0.55,2.55-0.85,3.81c-0.39,1.24-0.74,2.49-1.16,3.72c0.2-1.29,0.46-2.56,0.68-3.83
			l0.57-3.83c0.24-2.56,0.52-5.12,0.45-7.68c0.01-2.56-0.23-5.11-0.78-7.61c-0.13-0.62-0.32-1.24-0.47-1.86
			c-0.22-0.6-0.39-1.22-0.65-1.8C495.36,270.19,494.77,269.04,494,268z"/>
	</g>
	<path d="M242.5,458.5c0,0,50.5,19.5,85.5-1.5C327,458,286.5,471.5,242.5,458.5z"/>
	<path class="st17" d="M457.5,557.5c0,0-13,75-52,93c0,0,33-5,47-27c0,0,11.08-11.16,21.04-58.08L457.5,557.5z"/>
	<path class="st4" d="M209,246c0,0,7,7,12,5s6-12-4-14s-17-7-18-3S206,244,209,246z"/>
	<path class="st4" d="M317,230l15-3c0,0,12-2,9,5s-16,8-18,8S312,236,317,230z"/>
</g>
<g id="Layer_3">
</g>
</svg>
